<?xml version="1.0" standalone="no"?>
<!DOCTYPE svg PUBLIC "-//W3C//DTD SVG 20010904//EN"
 "http://www.w3.org/TR/2001/REC-SVG-20010904/DTD/svg10.dtd">
<svg version="1.0" xmlns="http://www.w3.org/2000/svg"
 width="70.000000pt" height="45.000000pt" viewBox="0 0 70.000000 45.000000"
 preserveAspectRatio="xMidYMid meet">

<g transform="translate(0.000000,45.000000) scale(0.100000,-0.100000)"
fill="#000000" stroke="none">
<path d="M284 434 c3 -9 6 -18 6 -20 0 -2 27 -4 60 -4 80 0 120 -20 120 -60 0
-36 -31 -60 -78 -60 -39 0 -41 10 21 -128 l42 -93 38 3 38 3 79 178 c44 98 80
180 80 182 0 3 -11 5 -25 5 -23 0 -30 -11 -63 -82 -20 -46 -53 -117 -73 -158
l-36 -75 -32 64 c-26 51 -30 66 -19 72 7 5 16 9 20 9 20 0 48 47 48 80 0 72
-47 100 -169 100 -53 0 -62 -2 -57 -16z"/>
<path d="M1 14 c0 -11 3 -14 6 -6 3 7 2 16 -1 19 -3 4 -6 -2 -5 -13z"/>
<path d="M181 14 c0 -11 3 -14 6 -6 3 7 2 16 -1 19 -3 4 -6 -2 -5 -13z"/>
<path d="M271 14 c0 -11 3 -14 6 -6 3 7 2 16 -1 19 -3 4 -6 -2 -5 -13z"/>
<path d="M340 20 c0 -5 5 -10 11 -10 5 0 7 5 4 10 -3 6 -8 10 -11 10 -2 0 -4
-4 -4 -10z"/>
<path d="M380 21 c0 -6 4 -13 10 -16 6 -3 7 1 4 9 -7 18 -14 21 -14 7z"/>
<path d="M55 10 c-3 -5 -1 -10 4 -10 6 0 11 5 11 10 0 6 -2 10 -4 10 -3 0 -8
-4 -11 -10z"/>
<path d="M206 8 c7 -10 24 -10 24 0 0 5 -7 9 -15 9 -8 0 -12 -4 -9 -9z"/>
<path d="M506 8 c3 -4 9 -8 15 -8 5 0 9 4 9 8 0 5 -7 9 -15 9 -8 0 -12 -4 -9
-9z"/>
</g>
</svg>
